<svg preserveAspectRatio="none" width="100%" height="100%" overflow="visible" style="display: block;" viewBox="0 0 12 12" fill="none" xmlns="http://www.w3.org/2000/svg">
<g id="ICOINS">
<circle id="Ellipse 4" cx="6" cy="6" r="6" fill="var(--fill-0, black)"/>
<g id="Icon">
<path d="M6 2.76923L6.42048 4.45117C6.50253 4.77937 6.54356 4.94347 6.629 5.077C6.70458 5.19511 6.80489 5.29542 6.923 5.371C7.05653 5.45644 7.22063 5.49747 7.54883 5.57952L9.23077 6L7.54883 6.42048C7.22063 6.50253 7.05653 6.54356 6.923 6.629C6.80489 6.70458 6.70458 6.80489 6.629 6.923C6.54356 7.05653 6.50253 7.22063 6.42048 7.54883L6 9.23077L5.57952 7.54883C5.49747 7.22063 5.45644 7.05653 5.371 6.923C5.29542 6.80489 5.19511 6.70458 5.077 6.629C4.94347 6.54356 4.77937 6.50253 4.45117 6.42048L2.76923 6L4.45117 5.57952C4.77937 5.49747 4.94347 5.45644 5.077 5.371C5.19511 5.29542 5.29542 5.19511 5.371 5.077C5.45644 4.94347 5.49747 4.77937 5.57952 4.45117L6 2.76923Z" fill="var(--fill-0, white)"/>
<path d="M6 2.76923L6.42048 4.45117C6.50253 4.77937 6.54356 4.94347 6.629 5.077C6.70458 5.19511 6.80489 5.29542 6.923 5.371C7.05653 5.45644 7.22063 5.49747 7.54883 5.57952L9.23077 6L7.54883 6.42048C7.22063 6.50253 7.05653 6.54356 6.923 6.629C6.80489 6.70458 6.70458 6.80489 6.629 6.923C6.54356 7.05653 6.50253 7.22063 6.42048 7.54883L6 9.23077L5.57952 7.54883C5.49747 7.22063 5.45644 7.05653 5.371 6.923C5.29542 6.80489 5.19511 6.70458 5.077 6.629C4.94347 6.54356 4.77937 6.50253 4.45117 6.42048L2.76923 6L4.45117 5.57952C4.77937 5.49747 4.94347 5.45644 5.077 5.371C5.19511 5.29542 5.29542 5.19511 5.371 5.077C5.45644 4.94347 5.49747 4.77937 5.57952 4.45117L6 2.76923Z" fill="var(--fill-0, white)"/>
<path d="M6 2.76923L5.57952 4.45117C5.49747 4.77937 5.45644 4.94347 5.371 5.077C5.29542 5.19511 5.19511 5.29542 5.077 5.371C4.94347 5.45644 4.77937 5.49747 4.45117 5.57952L2.76923 6L4.45117 6.42048C4.77937 6.50253 4.94347 6.54356 5.077 6.629C5.19511 6.70458 5.29542 6.80489 5.371 6.923C5.45644 7.05653 5.49747 7.22063 5.57952 7.54883L6 9.23077L6.42048 7.54883C6.50253 7.22063 6.54356 7.05653 6.629 6.923C6.70458 6.80489 6.80489 6.70458 6.923 6.629C7.05653 6.54356 7.22063 6.50253 7.54883 6.42048L9.23077 6L7.54883 5.57952C7.22063 5.49747 7.05653 5.45644 6.923 5.371C6.80489 5.29542 6.70458 5.19511 6.629 5.077C6.54356 4.94347 6.50253 4.77937 6.42048 4.45117L6 2.76923Z" stroke="var(--stroke-0, white)" stroke-linecap="round" stroke-linejoin="round"/>
</g>
</g>
</svg>
