<svg preserveAspectRatio="none" width="100%" height="100%" overflow="visible" style="display: block;" viewBox="0 0 11.5 11.5" fill="none" xmlns="http://www.w3.org/2000/svg">
<g id="Icon">
<path d="M5.75 0.75L6.40075 3.353C6.52773 3.86092 6.59122 4.11489 6.72346 4.32154C6.84042 4.50434 6.99566 4.65958 7.17846 4.77654C7.38511 4.90878 7.63908 4.97227 8.14701 5.09925L10.75 5.75L8.147 6.40075C7.63908 6.52773 7.38511 6.59122 7.17846 6.72346C6.99566 6.84042 6.84042 6.99566 6.72346 7.17846C6.59122 7.38511 6.52773 7.63908 6.40075 8.14701L5.75 10.75L5.09925 8.147C4.97227 7.63908 4.90878 7.38511 4.77654 7.17846C4.65958 6.99566 4.50434 6.84042 4.32154 6.72346C4.11489 6.59122 3.86092 6.52773 3.35299 6.40075L0.75 5.75L3.353 5.09925C3.86092 4.97227 4.11489 4.90878 4.32154 4.77654C4.50434 4.65958 4.65958 4.50434 4.77654 4.32154C4.90878 4.11489 4.97227 3.86092 5.09925 3.35299L5.75 0.75Z" fill="var(--fill-0, white)"/>
<path d="M5.75 0.75L6.40075 3.353C6.52773 3.86092 6.59122 4.11489 6.72346 4.32154C6.84042 4.50434 6.99566 4.65958 7.17846 4.77654C7.38511 4.90878 7.63908 4.97227 8.14701 5.09925L10.75 5.75L8.147 6.40075C7.63908 6.52773 7.38511 6.59122 7.17846 6.72346C6.99566 6.84042 6.84042 6.99566 6.72346 7.17846C6.59122 7.38511 6.52773 7.63908 6.40075 8.14701L5.75 10.75L5.09925 8.147C4.97227 7.63908 4.90878 7.38511 4.77654 7.17846C4.65958 6.99566 4.50434 6.84042 4.32154 6.72346C4.11489 6.59122 3.86092 6.52773 3.35299 6.40075L0.75 5.75L3.353 5.09925C3.86092 4.97227 4.11489 4.90878 4.32154 4.77654C4.50434 4.65958 4.65958 4.50434 4.77654 4.32154C4.90878 4.11489 4.97227 3.86092 5.09925 3.35299L5.75 0.75Z" fill="var(--fill-0, white)"/>
<path d="M5.75 0.75L5.09925 3.35299C4.97227 3.86092 4.90878 4.11489 4.77654 4.32154C4.65958 4.50434 4.50434 4.65958 4.32154 4.77654C4.11489 4.90878 3.86092 4.97227 3.353 5.09925L0.75 5.75L3.35299 6.40075C3.86092 6.52773 4.11489 6.59122 4.32154 6.72346C4.50434 6.84042 4.65958 6.99566 4.77654 7.17846C4.90878 7.38511 4.97227 7.63908 5.09925 8.147L5.75 10.75L6.40075 8.14701C6.52773 7.63908 6.59122 7.38511 6.72346 7.17846C6.84042 6.99566 6.99566 6.84042 7.17846 6.72346C7.38511 6.59122 7.63908 6.52773 8.147 6.40075L10.75 5.75L8.14701 5.09925C7.63908 4.97227 7.38511 4.90878 7.17846 4.77654C6.99566 4.65958 6.84042 4.50434 6.72346 4.32154C6.59122 4.11489 6.52773 3.86092 6.40075 3.353L5.75 0.75Z" stroke="var(--stroke-0, white)" stroke-width="1.5" stroke-linecap="round" stroke-linejoin="round"/>
</g>
</svg>
