<svg preserveAspectRatio="none" width="100%" height="100%" overflow="visible" style="display: block;" viewBox="0 0 8.64265 8.64265" fill="none" xmlns="http://www.w3.org/2000/svg">
<g id="Icon">
<path d="M4.32133 0.392848L4.83262 2.43801C4.93239 2.83709 4.98227 3.03663 5.08617 3.199C5.17807 3.34262 5.30004 3.46458 5.44366 3.55649C5.60603 3.66038 5.80557 3.71027 6.20464 3.81004L8.24981 4.32133L6.20464 4.83262C5.80557 4.93239 5.60603 4.98227 5.44366 5.08617C5.30004 5.17807 5.17807 5.30004 5.08617 5.44366C4.98227 5.60603 4.93239 5.80557 4.83262 6.20464L4.32133 8.24981L3.81004 6.20464C3.71027 5.80557 3.66038 5.60603 3.55649 5.44366C3.46459 5.30004 3.34262 5.17807 3.199 5.08617C3.03663 4.98227 2.83709 4.93239 2.43801 4.83262L0.392848 4.32133L2.43801 3.81004C2.83709 3.71027 3.03663 3.66038 3.199 3.55649C3.34262 3.46458 3.46458 3.34262 3.55649 3.199C3.66038 3.03663 3.71027 2.83709 3.81004 2.43801L4.32133 0.392848Z" fill="var(--fill-0, white)"/>
<path d="M4.32133 0.392848L4.83262 2.43801C4.93239 2.83709 4.98227 3.03663 5.08617 3.199C5.17807 3.34262 5.30004 3.46458 5.44366 3.55649C5.60603 3.66038 5.80557 3.71027 6.20464 3.81004L8.24981 4.32133L6.20464 4.83262C5.80557 4.93239 5.60603 4.98227 5.44366 5.08617C5.30004 5.17807 5.17807 5.30004 5.08617 5.44366C4.98227 5.60603 4.93239 5.80557 4.83262 6.20464L4.32133 8.24981L3.81004 6.20464C3.71027 5.80557 3.66038 5.60603 3.55649 5.44366C3.46459 5.30004 3.34262 5.17807 3.199 5.08617C3.03663 4.98227 2.83709 4.93239 2.43801 4.83262L0.392848 4.32133L2.43801 3.81004C2.83709 3.71027 3.03663 3.66038 3.199 3.55649C3.34262 3.46458 3.46458 3.34262 3.55649 3.199C3.66038 3.03663 3.71027 2.83709 3.81004 2.43801L4.32133 0.392848Z" fill="var(--fill-0, white)"/>
<path d="M4.32133 0.392848L3.81004 2.43801C3.71027 2.83709 3.66038 3.03663 3.55649 3.199C3.46458 3.34262 3.34262 3.46458 3.199 3.55649C3.03663 3.66038 2.83709 3.71027 2.43801 3.81004L0.392848 4.32133L2.43801 4.83262C2.83709 4.93239 3.03663 4.98227 3.199 5.08617C3.34262 5.17807 3.46459 5.30004 3.55649 5.44366C3.66038 5.60603 3.71027 5.80557 3.81004 6.20464L4.32133 8.24981L4.83262 6.20464C4.93239 5.80557 4.98227 5.60603 5.08617 5.44366C5.17807 5.30004 5.30004 5.17807 5.44366 5.08617C5.60603 4.98227 5.80557 4.93239 6.20464 4.83262L8.24981 4.32133L6.20464 3.81004C5.80557 3.71027 5.60603 3.66038 5.44366 3.55649C5.30004 3.46458 5.17807 3.34262 5.08617 3.199C4.98227 3.03663 4.93239 2.83709 4.83262 2.43801L4.32133 0.392848Z" stroke="var(--stroke-0, white)" stroke-width="0.785696" stroke-linecap="round" stroke-linejoin="round"/>
</g>
</svg>
