<svg preserveAspectRatio="none" width="100%" height="100%" overflow="visible" style="display: block;" viewBox="0 0 16 16" fill="none" xmlns="http://www.w3.org/2000/svg">
<g id="SVG">
<path id="Vector" d="M9.482 3.37321L9.37768 2.59096C9.35248 2.40181 9.19112 2.26054 9.00032 2.26054C8.80944 2.26054 8.64816 2.40181 8.62288 2.59095L8.51864 3.37321C8.21264 5.66776 6.40751 7.47292 4.11295 7.77886L3.3307 7.88317C3.14155 7.90839 3.0003 8.06976 3.0003 8.26056C3.0003 8.45136 3.14155 8.61272 3.3307 8.63792L4.11295 8.74224C6.4075 9.04816 8.21264 10.8534 8.51864 13.1479L8.62288 13.9302C8.64816 14.1193 8.80944 14.2606 9.00032 14.2606C9.19112 14.2606 9.35248 14.1193 9.37768 13.9302L9.482 13.1479C9.78792 10.8534 11.593 9.04816 13.8876 8.74224L14.6699 8.63792C14.859 8.61272 15.0003 8.45136 15.0003 8.26056C15.0003 8.06976 14.859 7.90839 14.6699 7.88317L13.8876 7.77886C11.593 7.47292 9.78792 5.66776 9.482 3.37321Z" fill="var(--fill-0, white)"/>
<path id="Vector_2" d="M3.72152 11.8054L3.8565 11.3667C3.87593 11.3036 3.93425 11.2606 4.0003 11.2606C4.06634 11.2606 4.12466 11.3036 4.14408 11.3667L4.27906 11.8054C4.4522 12.3682 4.8927 12.8086 5.4554 12.9818L5.8941 13.1167C5.95722 13.1362 6.0003 13.1945 6.0003 13.2606C6.0003 13.3266 5.95722 13.3849 5.8941 13.4043L5.45541 13.5393C4.8927 13.7125 4.4522 14.153 4.27906 14.7157L4.14408 15.1543C4.12466 15.2174 4.06634 15.2606 4.0003 15.2606C3.93425 15.2606 3.87593 15.2174 3.8565 15.1543L3.72153 14.7157C3.54838 14.153 3.10789 13.7125 2.54518 13.5393L2.10649 13.4043C2.04337 13.3849 2.0003 13.3266 2.0003 13.2606C2.0003 13.1945 2.04337 13.1362 2.10649 13.1167L2.54518 12.9818C3.10789 12.8086 3.54838 12.3682 3.72152 11.8054Z" fill="var(--fill-0, white)"/>
</g>
</svg>
