<svg preserveAspectRatio="none" width="100%" height="100%" overflow="visible" style="display: block;" viewBox="0 0 14.8719 14.85" fill="none" xmlns="http://www.w3.org/2000/svg">
<g id="image">
<path id="Vector" d="M12.7828 11.3766L10.8239 6.79544C10.4671 5.95682 9.93518 5.48118 9.32811 5.44989C8.7273 5.4186 8.14527 5.83791 7.70092 6.63898L6.51183 8.77308C6.26149 9.22369 5.90476 9.49279 5.51674 9.52409C5.12246 9.56164 4.72818 9.35511 4.409 8.94832L4.27132 8.77308C3.82697 8.21609 3.27623 7.94698 2.71297 8.0033C2.14972 8.05963 1.66782 8.44765 1.34864 9.07974L0.265934 11.2389C-0.122087 12.0212 -0.0845368 12.9286 0.372327 13.6671C0.829191 14.4056 1.62401 14.85 2.49393 14.85H10.4797C11.3183 14.85 12.1006 14.4306 12.5637 13.7297C13.0393 13.0288 13.1144 12.1463 12.7828 11.3766Z" fill="var(--fill-0, #94969C)"/>
<path id="Vector_2" d="M3.36361 6.09478C4.53188 6.09478 5.47896 5.14771 5.47896 3.97945C5.47896 2.81118 4.53188 1.86412 3.36361 1.86412C2.19534 1.86412 1.24827 2.81118 1.24827 3.97945C1.24827 5.14771 2.19534 6.09478 3.36361 6.09478Z" fill="var(--fill-0, #94969C)"/>
<g id="Group">
<path id="Vector_3" d="M14.0219 2.32489H11.0115" stroke="var(--stroke-0, #94969C)" stroke-width="1.7" stroke-miterlimit="10" stroke-linecap="round" stroke-linejoin="round"/>
<path id="Vector_4" d="M12.5168 0.85V3.87052" stroke="var(--stroke-0, #94969C)" stroke-width="1.7" stroke-miterlimit="10" stroke-linecap="round" stroke-linejoin="round"/>
</g>
</g>
</svg>
